<?xml version="1.0" standalone="no"?>
<!DOCTYPE svg PUBLIC "-//W3C//DTD SVG 20010904//EN"
 "http://www.w3.org/TR/2001/REC-SVG-20010904/DTD/svg10.dtd">
<svg version="1.0" xmlns="http://www.w3.org/2000/svg"
 width="260.000000pt" height="260.000000pt" viewBox="0 0 260.000000 260.000000"
 preserveAspectRatio="xMidYMid meet">
<metadata>
Created by potrace 1.11, written by Peter Selinger 2001-2013
</metadata>
<g transform="translate(0.000000,260.000000) scale(0.100000,-0.100000)"
fill="#000000" stroke="none">
<path d="M1235 2586 c-16 -8 -37 -21 -46 -28 -25 -21 -59 -81 -59 -105 0 -18
-14 -30 -62 -54 -105 -53 -165 -93 -257 -174 -135 -118 -256 -281 -315 -425
-10 -25 -22 -54 -27 -65 -21 -49 -64 -241 -84 -370 -2 -16 -9 -61 -16 -100 -6
-38 -13 -86 -16 -105 -9 -66 -53 -221 -78 -273 -30 -62 -46 -81 -105 -127 -85
-66 -82 -61 -84 -152 l-1 -83 1209 -3 c736 -1 1212 2 1216 7 3 5 4 44 3 87
l-1 78 -67 59 c-36 33 -77 79 -90 102 -21 35 -72 168 -72 185 0 5 -9 54 -18
100 -3 14 -8 41 -11 60 -3 19 -7 46 -10 60 -2 14 -9 56 -14 94 -6 38 -12 78
-15 90 -3 12 -7 34 -9 49 -65 398 -306 725 -668 903 -52 26 -68 39 -68 55 0
33 -38 92 -75 117 -42 29 -119 38 -160 18z"/>
<path d="M956 312 c12 -124 91 -230 210 -284 50 -22 165 -30 225 -16 126 30
241 164 251 294 l3 39 -346 1 -347 1 4 -35z"/>
</g>
</svg>
